<svg width="40" height="40" viewBox="0 0 40 40" fill="none" xmlns="http://www.w3.org/2000/svg">
<path d="M39.6476 16.3962C39.8875 17.7336 40 19.1005 40 20.46C40 26.5446 37.7809 31.6887 33.92 35.1719H33.9275C30.5463 38.229 25.9057 40 20.403 40C12.6886 40 5.63396 35.7378 2.17037 28.9844C-0.723454 23.3333 -0.723459 16.6754 2.17037 11.0243C5.63396 4.26356 12.6886 0.00134773 20.403 0.00134773C25.4709 -0.0574414 30.3664 1.80911 34.0549 5.20419L28.2298 10.9141C26.1231 8.94464 23.3118 7.87174 20.403 7.91583C15.0801 7.91583 10.5595 11.4358 8.94761 16.1757C8.09296 18.6595 8.09296 21.3492 8.94761 23.833H8.95512C10.5745 28.5655 15.0876 32.0855 20.4105 32.0855C23.1618 32.0855 25.5234 31.3947 27.3526 30.1749H27.3451C29.4968 28.7786 30.9662 26.5814 31.4235 24.0975H20.403V16.3962H39.6476Z" fill="#D1586D"/>
</svg>
