<svg width="40" height="40" viewBox="0 0 40 40" fill="none" xmlns="http://www.w3.org/2000/svg">
<path d="M29.7906 0.0200174C29.686 -0.0749821 25.9168 0.0575173 22.6367 2.95C19.3567 5.83999 19.8614 9.15497 19.9352 9.23997C20.0091 9.32497 24.6121 9.45747 27.5506 6.09499C30.4891 2.7325 29.8952 0.117517 29.7906 0.0200174ZM39.9876 29.3524C39.8399 29.1124 32.8337 26.2674 33.486 20.7974C34.1383 15.3249 38.6399 13.8249 38.7106 13.6624C38.7814 13.5 36.8737 11.6875 34.8522 10.77C33.3679 10.1231 31.7252 9.75249 30.0429 9.68497C29.7106 9.67747 28.5568 9.44747 26.1845 9.97497C24.6214 10.3225 21.0983 11.4475 20.129 11.4925C19.1567 11.5375 16.2644 10.1875 13.1536 9.82997C11.1629 9.51747 9.0521 10.1575 7.54133 10.65C6.03363 11.14 3.16593 12.535 1.15977 16.2424C-0.846384 19.9474 0.202849 25.8174 0.95362 27.6424C1.70439 29.4649 2.8767 32.4524 4.87055 34.6323C6.64286 37.0923 8.99364 38.7998 9.97518 39.3798C10.9567 39.9598 13.726 40.3448 15.646 39.5473C17.1906 38.7773 19.9783 38.3348 21.0798 38.3673C22.1783 38.3998 24.3444 38.7523 26.5629 39.7148C28.3198 40.2073 29.9814 40.0023 31.646 39.4523C33.3106 38.8998 35.7199 36.8048 38.5322 32.5574C39.5999 30.5824 40.086 29.5149 39.9876 29.3524Z" fill="#D1586D"/>
<path d="M29.7906 0.0200174C29.686 -0.0749821 25.9168 0.0575173 22.6367 2.95C19.3567 5.83999 19.8614 9.15497 19.9352 9.23997C20.0091 9.32497 24.6121 9.45747 27.5506 6.09499C30.4891 2.7325 29.8952 0.117517 29.7906 0.0200174ZM39.9876 29.3524C39.8399 29.1124 32.8337 26.2674 33.486 20.7974C34.1383 15.3249 38.6399 13.8249 38.7106 13.6624C38.7814 13.5 36.8737 11.6875 34.8522 10.77C33.3679 10.1231 31.7252 9.75249 30.0429 9.68497C29.7106 9.67747 28.5568 9.44747 26.1845 9.97497C24.6214 10.3225 21.0983 11.4475 20.129 11.4925C19.1567 11.5375 16.2644 10.1875 13.1536 9.82997C11.1629 9.51747 9.0521 10.1575 7.54133 10.65C6.03363 11.14 3.16593 12.535 1.15977 16.2424C-0.846384 19.9474 0.202849 25.8174 0.95362 27.6424C1.70439 29.4649 2.8767 32.4524 4.87055 34.6323C6.64286 37.0923 8.99364 38.7998 9.97518 39.3798C10.9567 39.9598 13.726 40.3448 15.646 39.5473C17.1906 38.7773 19.9783 38.3348 21.0798 38.3673C22.1783 38.3998 24.3444 38.7523 26.5629 39.7148C28.3198 40.2073 29.9814 40.0023 31.646 39.4523C33.3106 38.8998 35.7199 36.8048 38.5322 32.5574C39.5999 30.5824 40.086 29.5149 39.9876 29.3524Z" fill="#D1586D"/>
</svg>
