<svg width="180" height="35" viewBox="0 0 180 35" fill="none" xmlns="http://www.w3.org/2000/svg">
<path d="M153.844 27.9017C153.796 28.1753 153.912 28.4517 154.143 28.6149C154.373 28.7781 154.68 28.7995 154.932 28.6704L162 25.058L169.067 28.6704C169.32 28.7995 169.626 28.7781 169.857 28.6149C170.088 28.4517 170.204 28.1753 170.155 27.9017L168.806 20.2506L174.523 14.8322C174.728 14.6383 174.801 14.3486 174.713 14.0847C174.625 13.8207 174.39 13.6283 174.108 13.5884L166.206 12.4721L162.672 5.51096C162.546 5.26206 162.285 5.10449 162 5.10449C161.714 5.10449 161.454 5.26206 161.327 5.51096L157.794 12.4721L149.892 13.5884C149.609 13.6283 149.375 13.8207 149.286 14.0847C149.198 14.3486 149.272 14.6383 149.476 14.8322L155.194 20.2506L153.844 27.9017Z" fill="#FFEA52" stroke="#F6BA50" stroke-linecap="round" stroke-linejoin="round"/>
<path d="M117.844 27.9017C117.796 28.1753 117.912 28.4517 118.143 28.6149C118.374 28.7781 118.68 28.7995 118.933 28.6704L126 25.058L133.067 28.6704C133.32 28.7995 133.626 28.7781 133.857 28.6149C134.088 28.4517 134.204 28.1753 134.156 27.9017L132.806 20.2506L138.524 14.8322C138.728 14.6383 138.801 14.3486 138.713 14.0847C138.625 13.8207 138.39 13.6283 138.108 13.5884L130.206 12.4721L126.673 5.51096C126.546 5.26206 126.285 5.10449 126 5.10449C125.715 5.10449 125.454 5.26206 125.327 5.51096L121.794 12.4721L113.892 13.5884C113.61 13.6283 113.375 13.8207 113.287 14.0847C113.199 14.3486 113.272 14.6383 113.477 14.8322L119.194 20.2506L117.844 27.9017Z" fill="#FFEA52" stroke="#F6BA50" stroke-linecap="round" stroke-linejoin="round"/>
<path d="M81.8444 27.9017C81.7961 28.1753 81.9118 28.4517 82.1428 28.6149C82.3737 28.7781 82.6799 28.7995 82.9326 28.6704L90 25.058L97.0674 28.6704C97.3202 28.7995 97.6263 28.7781 97.8573 28.6149C98.0882 28.4517 98.2038 28.1753 98.1557 27.9017L96.8058 20.2506L102.524 14.8322C102.728 14.6383 102.801 14.3486 102.713 14.0847C102.625 13.8207 102.39 13.6283 102.108 13.5884L94.2063 12.4721L90.6726 5.51096C90.5462 5.26206 90.2855 5.10449 90 5.10449C89.7146 5.10449 89.4539 5.26206 89.3274 5.51096L85.7938 12.4721L77.8922 13.5884C77.6097 13.6283 77.3749 13.8207 77.2867 14.0847C77.1985 14.3486 77.2721 14.6383 77.4765 14.8322L83.1942 20.2506L81.8444 27.9017Z" fill="#FFEA52" stroke="#F6BA50" stroke-linecap="round" stroke-linejoin="round"/>
<path d="M45.8444 27.9017C45.7961 28.1753 45.9118 28.4517 46.1428 28.6149C46.3737 28.7781 46.6799 28.7995 46.9326 28.6704L54 25.058L61.0674 28.6704C61.3202 28.7995 61.6263 28.7781 61.8573 28.6149C62.0882 28.4517 62.2038 28.1753 62.1557 27.9017L60.8058 20.2506L66.5235 14.8322C66.728 14.6383 66.8015 14.3486 66.7133 14.0847C66.6251 13.8207 66.3903 13.6283 66.1079 13.5884L58.2063 12.4721L54.6726 5.51096C54.5462 5.26206 54.2855 5.10449 54 5.10449C53.7146 5.10449 53.4539 5.26206 53.3274 5.51096L49.7938 12.4721L41.8922 13.5884C41.6097 13.6283 41.3749 13.8207 41.2867 14.0847C41.1985 14.3486 41.2721 14.6383 41.4765 14.8322L47.1942 20.2506L45.8444 27.9017Z" fill="#FFEA52" stroke="#F6BA50" stroke-linecap="round" stroke-linejoin="round"/>
<path d="M9.8444 27.9017C9.79615 28.1753 9.91181 28.4517 10.1428 28.6149C10.3737 28.7781 10.6799 28.7995 10.9326 28.6704L18 25.058L25.0674 28.6704C25.3202 28.7995 25.6263 28.7781 25.8573 28.6149C26.0882 28.4517 26.2038 28.1753 26.1557 27.9017L24.8058 20.2506L30.5235 14.8322C30.728 14.6383 30.8015 14.3486 30.7133 14.0847C30.6251 13.8207 30.3903 13.6283 30.1079 13.5884L22.2063 12.4721L18.6726 5.51096C18.5462 5.26206 18.2855 5.10449 18 5.10449C17.7146 5.10449 17.4539 5.26206 17.3274 5.51096L13.7938 12.4721L5.89217 13.5884C5.60966 13.6283 5.37494 13.8207 5.28673 14.0847C5.19851 14.3486 5.27209 14.6383 5.47651 14.8322L11.1942 20.2506L9.8444 27.9017Z" fill="#FFEA52" stroke="#F6BA50" stroke-linecap="round" stroke-linejoin="round"/>
</svg>
