<svg width="180" height="200" viewBox="0 0 180 200" fill="none" xmlns="http://www.w3.org/2000/svg">
<path d="M90 200C63.75 194.167 42.1875 180.625 25.3125 159.375C8.4375 138.125 0 114.833 0 89.5V30L90 0L180 30V89.5C180 114.833 171.562 138.125 154.688 159.375C137.812 180.625 116.25 194.167 90 200ZM90 72.25L21.375 119.75C25.5 131.75 31.8281 142.625 40.3594 152.375C48.8906 162.125 58.875 170.083 70.3125 176.25V132.75H109.688V176.25C121.125 170.083 131.109 162.125 139.641 152.375C148.172 142.625 154.5 131.75 158.625 119.75L90 72.25ZM90 16L16.875 40.5V89.5C16.875 91.6667 16.9688 94 17.1562 96.5C17.3438 99 17.625 101.333 18 103.5L90 53.5L162 103.5C162.375 101.333 162.656 99 162.844 96.5C163.031 94 163.125 91.6667 163.125 89.5V40.5L90 16Z" fill="#F8D7E5"/>
</svg>
