<svg width="50" height="50" viewBox="0 0 50 50" fill="none" xmlns="http://www.w3.org/2000/svg">
<path d="M0 25C0 18.0964 5.59644 12.5 12.5 12.5C17.129 12.5 21.1676 15.0162 23.3274 18.75H43.75C44.1644 18.75 44.5618 18.9146 44.8549 19.2076L49.5424 23.8951C50.1525 24.5053 50.1525 25.4947 49.5424 26.1049L44.8549 30.7924C44.2447 31.4025 43.2553 31.4025 42.6451 30.7924L40.625 28.7722L38.6049 30.7924C37.9947 31.4025 37.0053 31.4025 36.3951 30.7924L34.375 28.7722L32.3549 30.7924C31.7447 31.4025 30.7553 31.4025 30.1451 30.7924L28.125 28.7722L26.1049 30.7924C25.8118 31.0854 25.4144 31.25 25 31.25H23.3274C21.1676 34.9838 17.129 37.5 12.5 37.5C5.59644 37.5 0 31.9036 0 25ZM12.5 15.625C7.32233 15.625 3.125 19.8223 3.125 25C3.125 30.1777 7.32233 34.375 12.5 34.375C16.2375 34.375 19.4672 32.188 20.9736 29.017C21.2324 28.4722 21.7818 28.125 22.385 28.125H24.3528L27.0201 25.4576C27.6303 24.8475 28.6197 24.8475 29.2299 25.4576L31.25 27.4778L33.2701 25.4576C33.8803 24.8475 34.8697 24.8475 35.4799 25.4576L37.5 27.4778L39.5201 25.4576C40.1303 24.8475 41.1197 24.8475 41.7299 25.4576L43.75 27.4778L46.2278 25L43.1028 21.875H22.385C21.7818 21.875 21.2324 21.5278 20.9736 20.983C19.4672 17.812 16.2375 15.625 12.5 15.625Z" fill="#BB2A49"/>
<path d="M12.5 25C12.5 26.7259 11.1009 28.125 9.375 28.125C7.64911 28.125 6.25 26.7259 6.25 25C6.25 23.2741 7.64911 21.875 9.375 21.875C11.1009 21.875 12.5 23.2741 12.5 25Z" fill="#BB2A49"/>
</svg>
