<svg width="25" height="25" viewBox="0 0 25 25" fill="none" xmlns="http://www.w3.org/2000/svg">
<path d="M6.83655 19.5816C6.80304 19.7692 6.88336 19.9587 7.04376 20.0706C7.20415 20.1825 7.41678 20.1972 7.59226 20.1087L12.5002 17.6316L17.4081 20.1087C17.5836 20.1972 17.7962 20.1825 17.9566 20.0706C18.1169 19.9587 18.1973 19.7692 18.1638 19.5816L17.2264 14.3351L21.1971 10.6196C21.339 10.4867 21.3901 10.2881 21.3288 10.107C21.2676 9.92605 21.1046 9.79412 20.9084 9.76676L15.4212 9.00131L12.9673 4.22794C12.8794 4.05727 12.6984 3.94922 12.5002 3.94922C12.3019 3.94922 12.1209 4.05727 12.0331 4.22794L9.57917 9.00131L4.09195 9.76676C3.89576 9.79412 3.73276 9.92605 3.6715 10.107C3.61024 10.2881 3.66133 10.4867 3.80329 10.6196L7.77389 14.3351L6.83655 19.5816Z" fill="#FFEA52" stroke="#F6BA50" stroke-linecap="round" stroke-linejoin="round"/>
</svg>
