<svg width="19" height="18" viewBox="0 0 19 18" fill="none" xmlns="http://www.w3.org/2000/svg">
<path d="M3.83655 16.5816C3.80304 16.7692 3.88336 16.9587 4.04376 17.0706C4.20415 17.1825 4.41678 17.1972 4.59226 17.1087L9.5002 14.6316L14.4081 17.1087C14.5836 17.1972 14.7962 17.1825 14.9566 17.0706C15.1169 16.9587 15.1973 16.7692 15.1638 16.5816L14.2264 11.3351L18.1971 7.6196C18.339 7.4867 18.3901 7.2881 18.3288 7.107C18.2676 6.92605 18.1046 6.79412 17.9084 6.76676L12.4212 6.00131L9.9673 1.22794C9.8794 1.05727 9.6984 0.949219 9.5002 0.949219C9.3019 0.949219 9.1209 1.05727 9.0331 1.22794L6.57917 6.00131L1.09195 6.76676C0.895761 6.79412 0.732761 6.92605 0.671501 7.107C0.610241 7.2881 0.661331 7.4867 0.803291 7.6196L4.77389 11.3351L3.83655 16.5816Z" stroke="#F6BA50" stroke-linecap="round" stroke-linejoin="round"/>
</svg>
