<svg width="32" height="32" viewBox="0 0 32 32" fill="none" xmlns="http://www.w3.org/2000/svg">
<path d="M16.0015 0C11.6561 0 11.1108 0.0190003 9.4041 0.096667C7.70075 0.174667 6.53807 0.444333 5.52072 0.84C4.46838 1.24867 3.5757 1.79533 2.68636 2.685C1.79635 3.57433 1.24968 4.467 0.839675 5.519C0.443004 6.53667 0.173002 7.69967 0.0963342 9.40233C0.0200001 11.109 0 11.6547 0 16C0 20.3453 0.0193338 20.889 0.096668 22.5957C0.175002 24.299 0.444671 25.4617 0.840009 26.479C1.24901 27.5313 1.79569 28.424 2.68536 29.3133C3.57437 30.2033 4.46705 30.7513 5.51872 31.16C6.53673 31.5557 7.69975 31.8253 9.40276 31.9033C11.1094 31.981 11.6545 32 15.9995 32C20.3452 32 20.8889 31.981 22.5956 31.9033C24.2989 31.8253 25.4629 31.5557 26.4809 31.16C27.533 30.7513 28.4243 30.2033 29.3133 29.3133C30.2033 28.424 30.75 27.5313 31.16 26.4793C31.5533 25.4617 31.8233 24.2987 31.9033 22.596C31.98 20.8893 32 20.3453 32 16C32 11.6547 31.98 11.1093 31.9033 9.40267C31.8233 7.69933 31.5533 6.53667 31.16 5.51933C30.75 4.467 30.2033 3.57433 29.3133 2.685C28.4233 1.795 27.5333 1.24833 26.4799 0.84C25.4599 0.444333 24.2966 0.174667 22.5932 0.096667C20.8866 0.0190003 20.3432 0 15.9965 0H16.0015ZM14.5662 2.88333C14.9922 2.88267 15.4675 2.88333 16.0015 2.88333C20.2735 2.88333 20.7799 2.89867 22.4669 2.97533C24.0269 3.04667 24.8736 3.30733 25.4376 3.52633C26.1843 3.81633 26.7166 4.163 27.2763 4.723C27.8363 5.283 28.183 5.81633 28.4736 6.563C28.6926 7.12633 28.9536 7.973 29.0246 9.533C29.1013 11.2197 29.118 11.7263 29.118 15.9963C29.118 20.2663 29.1013 20.773 29.0246 22.4597C28.9533 24.0197 28.6926 24.8663 28.4736 25.4297C28.1836 26.1763 27.8363 26.708 27.2763 27.2677C26.7163 27.8277 26.1846 28.1743 25.4376 28.4643C24.8743 28.6843 24.0269 28.9443 22.4669 29.0157C20.7802 29.0923 20.2735 29.109 16.0015 29.109C11.7291 29.109 11.2228 29.0923 9.5361 29.0157C7.97608 28.9437 7.12941 28.683 6.56507 28.464C5.81839 28.174 5.28505 27.8273 4.72505 27.2673C4.16504 26.7073 3.81837 26.1753 3.5277 25.4283C3.3087 24.865 3.0477 24.0183 2.9767 22.4583C2.90003 20.7717 2.8847 20.265 2.8847 15.9923C2.8847 11.7197 2.90003 11.2157 2.9767 9.529C3.04803 7.969 3.3087 7.12233 3.5277 6.55833C3.81771 5.81167 4.16504 5.27833 4.72505 4.71833C5.28505 4.15833 5.81839 3.81167 6.56507 3.521C7.12907 3.301 7.97608 3.041 9.5361 2.96933C11.0121 2.90267 11.5841 2.88267 14.5662 2.87933V2.88333ZM24.5423 5.54C23.4822 5.54 22.6222 6.399 22.6222 7.45933C22.6222 8.51933 23.4822 9.37933 24.5423 9.37933C25.6023 9.37933 26.4623 8.51933 26.4623 7.45933C26.4623 6.39933 25.6023 5.53933 24.5423 5.53933V5.54ZM16.0015 7.78333C11.4638 7.78333 7.78475 11.4623 7.78475 16C7.78475 20.5377 11.4638 24.215 16.0015 24.215C20.5392 24.215 24.2169 20.5377 24.2169 16C24.2169 11.4623 20.5389 7.78333 16.0012 7.78333H16.0015ZM16.0015 10.6667C18.9469 10.6667 21.3349 13.0543 21.3349 16C21.3349 18.9453 18.9469 21.3333 16.0015 21.3333C13.0558 21.3333 10.6681 18.9453 10.6681 16C10.6681 13.0543 13.0558 10.6667 16.0015 10.6667Z" fill="white"/>
</svg>
