<svg width="48" height="48" viewBox="0 0 48 48" fill="none" xmlns="http://www.w3.org/2000/svg">
<path d="M24.0044 23.5C24.9681 23.5 25.7917 23.1569 26.475 22.4706C27.1583 21.7843 27.5 20.9593 27.5 19.9956C27.5 19.0319 27.1569 18.2083 26.4706 17.525C25.7843 16.8417 24.9593 16.5 23.9956 16.5C23.0319 16.5 22.2083 16.8431 21.525 17.5294C20.8417 18.2157 20.5 19.0407 20.5 20.0044C20.5 20.9681 20.8431 21.7917 21.5294 22.475C22.2157 23.1583 23.0407 23.5 24.0044 23.5ZM24 40.05C28.4333 36.0167 31.7083 32.3583 33.825 29.075C35.9417 25.7917 37 22.9 37 20.4C37 16.4737 35.7451 13.2588 33.2354 10.7553C30.7257 8.25175 27.6472 7 24 7C20.3528 7 17.2743 8.25175 14.7646 10.7553C12.2549 13.2588 11 16.4737 11 20.4C11 22.9 12.0833 25.7917 14.25 29.075C16.4167 32.3583 19.6667 36.0167 24 40.05ZM24 44C18.6333 39.4333 14.625 35.1917 11.975 31.275C9.325 27.3583 8 23.7333 8 20.4C8 15.4 9.60833 11.4167 12.825 8.45C16.0417 5.48333 19.7667 4 24 4C28.2333 4 31.9583 5.48333 35.175 8.45C38.3917 11.4167 40 15.4 40 20.4C40 23.7333 38.675 27.3583 36.025 31.275C33.375 35.1917 29.3667 39.4333 24 44Z" fill="#E68A9A"/>
</svg>
