<svg width="32" height="32" viewBox="0 0 32 32" fill="none" xmlns="http://www.w3.org/2000/svg">
<path d="M4 4C1.79086 4 0 5.79086 0 8V24L5.16772e-05 24.0206C0.01112 26.2202 1.79772 28 4 28H15C15.5523 28 16 27.5523 16 27C16 26.4477 15.5523 26 15 26H4C3.0743 26 2.29549 25.3711 2.06753 24.5172L13.3483 17.5752L16 19.1662L30 10.7662V17C30 17.5523 30.4477 18 31 18C31.5523 18 32 17.5523 32 17V8C32 5.79086 30.2091 4 28 4H4ZM11.4162 16.4159L2 22.2104V10.7662L11.4162 16.4159ZM2 8.43381V8C2 6.89543 2.89543 6 4 6H28C29.1046 6 30 6.89543 30 8V8.43381L16 16.8338L2 8.43381Z" fill="white"/>
<path d="M28.4934 28.5372C30.5134 28.5372 31.6677 26.8232 31.6677 24.4884V24.0687C31.6677 20.8595 29.2804 18 25.0394 18H24.9694C20.842 18 18 20.7196 18 24.8645V25.2929C18 29.639 20.877 32 24.7158 32H24.8032C25.9925 32 26.8407 31.8513 27.278 31.6502V30.1899C26.7883 30.4085 25.9313 30.5484 24.9169 30.5484H24.8295C22.1624 30.5484 19.6877 28.9744 19.6877 25.2405V24.9257C19.6877 21.6115 21.8039 19.4778 24.9694 19.4778H25.0481C28.1174 19.4778 30.015 21.5765 30.015 24.1299V24.366C30.015 26.3161 29.3679 27.1468 28.7383 27.1468C28.2748 27.1468 27.9163 26.8495 27.9163 26.3073V21.9263H26.1062V23.0631H26.045C25.8788 22.4685 25.3104 21.8039 24.1387 21.8039C22.5821 21.8039 21.6202 22.9144 21.6202 24.6021V25.6602C21.6202 27.4441 22.5996 28.5284 24.1387 28.5284C25.0831 28.5284 25.9313 28.0737 26.1674 27.243H26.2548C26.4909 28.0824 27.4878 28.5372 28.4934 28.5372ZM23.5878 25.3629V24.9082C23.5878 23.8151 24.0425 23.3254 24.7333 23.3254C25.3279 23.3254 25.8788 23.7102 25.8788 24.742V25.4766C25.8788 26.6221 25.3716 26.9631 24.7508 26.9631C24.0425 26.9631 23.5878 26.5347 23.5878 25.3629Z" fill="white"/>
</svg>
