<svg width="40" height="40" viewBox="0 0 40 40" fill="none" xmlns="http://www.w3.org/2000/svg">
<path fill-rule="evenodd" clip-rule="evenodd" d="M18.0229 2.00082C19.2231 0.736279 20 0 20 0C20.2722 0.907301 20.5839 1.77095 20.9279 2.59569C22.9569 7.45938 26.1107 10.9695 28.9187 14.0948C32.1946 17.7408 35 20.8631 35 25C35 33.2843 28.2843 40 20 40C11.7157 40 5 33.2843 5 25C5 16.67 13.9495 6.29273 18.0229 2.00082ZM19.0584 4.5532C17.7512 5.97035 16.1159 7.84379 14.4856 9.97489C12.6689 12.3497 10.8956 14.9962 9.58557 17.6506C8.26201 20.3323 7.5 22.8452 7.5 25C7.5 31.9036 13.0964 37.5 20 37.5C26.9036 37.5 32.5 31.9036 32.5 25C32.5 21.9969 30.5107 19.6072 27.0466 15.7518L26.9729 15.6697C24.3721 12.7753 21.2488 9.29933 19.0584 4.5532Z" fill="#BB2A49"/>
<path fill-rule="evenodd" clip-rule="evenodd" d="M11.382 19.441C13.4339 15.3372 15.6756 12.5566 16.6161 11.6161L18.3839 13.3839C17.6577 14.1101 15.5661 16.6628 13.618 20.559L11.382 19.441Z" fill="#BB2A49"/>
</svg>
