<svg width="40" height="40" viewBox="0 0 40 40" fill="none" xmlns="http://www.w3.org/2000/svg">
<g clip-path="url(#clip0_378_1536)">
<path d="M2.5 0L0 2.5L5.50221 10.2031C5.97149 10.8601 6.72917 11.25 7.53654 11.25H7.71447C8.37751 11.25 9.01339 11.5134 9.48223 11.9822L16.1697 18.6697L9.62747 25.306C8.95302 25.1069 8.23899 25 7.5 25C3.35786 25 0 28.3579 0 32.5C0 36.6421 3.35786 40 7.5 40C11.6421 40 15 36.6421 15 32.5C15 31.761 14.8931 31.047 14.694 30.3725L21.3303 23.8303L23.75 26.25L22.9886 28.5342C22.6892 29.4325 22.923 30.423 23.5925 31.0925L31.7678 39.2678C32.2559 39.7559 32.8957 40 33.5355 40C34.1753 40 34.8151 39.7559 35.3033 39.2678L39.2678 35.3033C39.7559 34.8151 40 34.1753 40 33.5355C40 32.8957 39.7559 32.2559 39.2678 31.7678L31.0925 23.5925C30.423 22.923 29.4325 22.6892 28.5342 22.9886L26.25 23.75L23.8481 21.3481L30.5478 14.7434C31.1703 14.9108 31.8247 15 32.5 15C36.6421 15 40 11.6421 40 7.5C40 6.82815 39.9117 6.17694 39.746 5.55734L34.3934 10.9099L30 9.99996L29.0901 5.6066L34.4427 0.254037C33.8231 0.0883397 33.1718 0 32.5 0C28.3579 0 25 3.35786 25 7.5C25 8.17531 25.0893 8.82977 25.2566 9.45224L18.6519 16.1519L11.9822 9.48223C11.5134 9.01339 11.25 8.37751 11.25 7.71447V7.53654C11.25 6.72917 10.8601 5.97149 10.2031 5.50221L2.5 0ZM26.6161 26.6161C27.1043 26.128 27.8957 26.128 28.3839 26.6161L35.6694 33.9016C36.1576 34.3898 36.1576 35.1813 35.6694 35.6694C35.1813 36.1576 34.3898 36.1576 33.9016 35.6694L26.6161 28.3839C26.128 27.8957 26.128 27.1043 26.6161 26.6161ZM7.5 27.5L8.67763 28.105L10 28.1698L10.7173 29.2826L11.8301 30L11.895 31.3223L12.5 32.5L11.895 33.6776L11.8301 35L10.7173 35.7173L10 36.8301L8.67763 36.8949L7.5 37.5L6.32237 36.8949L5 36.8301L4.28267 35.7173L3.16987 35L3.10504 33.6776L2.5 32.5L3.10504 31.3223L3.16987 30L4.28267 29.2826L5 28.1698L6.32237 28.105L7.5 27.5Z" fill="#BB2A49"/>
</g>
<defs>
<clipPath id="clip0_378_1536">
<rect width="40" height="40" fill="white"/>
</clipPath>
</defs>
</svg>
