<svg width="40" height="40" viewBox="0 0 40 40" fill="none" xmlns="http://www.w3.org/2000/svg">
<path fill-rule="evenodd" clip-rule="evenodd" d="M12.6011 0.757601C12.798 0.297996 13.25 0 13.75 0H26.25C26.75 0 27.202 0.297996 27.3989 0.757601L34.8989 18.2576C35.0473 18.6038 35.0317 18.9985 34.8563 19.3319C34.6809 19.6653 34.3623 19.9023 33.9929 19.9762L33.9884 19.9771C33.6141 20.0508 33.238 20.1156 32.8617 20.1783C32.144 20.2979 31.1114 20.4567 29.8425 20.6153C27.587 20.8973 24.5745 21.1818 21.25 21.2407V33.75C21.25 34.4404 20.6904 35 20 35C19.3096 35 18.75 34.4388 18.75 33.7485V21.2388C15.4255 21.1799 12.413 20.8973 10.1575 20.6153C8.88857 20.4567 7.85601 20.2979 7.13825 20.1783C6.76201 20.1156 6.3859 20.0508 6.01164 19.9771L6.00486 19.9757C5.63547 19.9018 5.3191 19.6653 5.14372 19.3319C4.96835 18.9985 4.95268 18.6038 5.10107 18.2576L12.6011 0.757601ZM8.02175 17.7892C8.6661 17.8914 9.49417 18.013 10.4675 18.1347C12.9324 18.4428 16.316 18.75 20 18.75C23.684 18.75 27.0676 18.4428 29.5325 18.1347C30.5058 18.013 31.3339 17.8914 31.9782 17.7892L25.4258 2.5H14.5742L8.02175 17.7892Z" fill="#BB2A49"/>
<path d="M16.2332 31.4356C16.346 32.1167 15.8854 32.7603 15.2043 32.8731C13.4257 33.1677 12.0064 33.6097 11.0686 34.1039C10.599 34.3512 10.3055 34.583 10.143 34.7672C10.065 34.8556 10.029 34.9197 10.0132 34.9561L10.0093 34.9654C10.0044 34.9778 10.0012 34.9908 10.0012 34.9908C10.0001 34.9962 10 35.0001 10 35.0001C10 35.0001 9.99988 35.0063 10.0038 35.0192C10.0081 35.0331 10.0185 35.0607 10.0438 35.1019C10.0969 35.1883 10.2051 35.3183 10.4078 35.478C10.8205 35.8033 11.4952 36.1509 12.4403 36.4659C14.3175 37.0916 16.9904 37.5001 20 37.5001C23.0096 37.5001 25.6825 37.0916 27.5597 36.4659C28.5048 36.1509 29.1795 35.8033 29.5922 35.478C29.7949 35.3183 29.9031 35.1883 29.9562 35.1019C29.9815 35.0607 29.9919 35.0331 29.9962 35.0192C30 35.0066 30 35.0002 30 35.0002C30 35.0002 29.9999 34.9962 29.9988 34.9908C29.9976 34.9852 29.9945 34.9738 29.9868 34.9561C29.971 34.9197 29.935 34.8556 29.857 34.7672C29.6945 34.583 29.401 34.3512 28.9314 34.1039C27.9936 33.6097 26.5743 33.1677 24.7957 32.8731C24.1146 32.7603 23.654 32.1167 23.7668 31.4356C23.8796 30.7545 24.5232 30.2939 25.2043 30.4067C27.13 30.7257 28.8357 31.2276 30.0968 31.8921C31.2522 32.5009 32.5 33.5036 32.5 35.0001C32.5 36.065 31.8514 36.8806 31.1396 37.4415C30.4138 38.0136 29.441 38.474 28.3502 38.8376C26.1557 39.5691 23.2036 40.0001 20 40.0001C16.7964 40.0001 13.8443 39.5691 11.6498 38.8376C10.559 38.474 9.5862 38.0136 8.86036 37.4415C8.14862 36.8806 7.5 36.065 7.5 35.0001C7.5 33.5036 8.7478 32.5009 9.90321 31.8921C11.1643 31.2276 12.87 30.7257 14.7957 30.4067C15.4768 30.2939 16.1204 30.7545 16.2332 31.4356Z" fill="#BB2A49"/>
</svg>
