<svg width="40" height="40" viewBox="0 0 40 40" fill="none" xmlns="http://www.w3.org/2000/svg">
<path d="M20.5882 3.89706C20.2206 3.70098 19.7794 3.70098 19.4118 3.89706L0.661765 13.8971C0.254435 14.1143 0 14.5384 0 15C0 15.4616 0.254435 15.8857 0.661765 16.1029L7.96875 20L0.661765 23.8971C0.254435 24.1143 0 24.5384 0 25C0 25.4616 0.254435 25.8857 0.661765 26.1029L19.4118 36.1029C19.7794 36.299 20.2206 36.299 20.5882 36.1029L39.3382 26.1029C39.7456 25.8857 40 25.4616 40 25C40 24.5384 39.7456 24.1143 39.3382 23.8971L32.0312 20L39.3382 16.1029C39.7456 15.8857 40 15.4616 40 15C40 14.5384 39.7456 14.1143 39.3382 13.8971L20.5882 3.89706ZM29.375 21.4167L36.0938 25L20 33.5833L3.90625 25L10.625 21.4167L19.4118 26.1029C19.7794 26.299 20.2206 26.299 20.5882 26.1029L29.375 21.4167ZM20 23.5833L3.90625 15L20 6.41667L36.0938 15L20 23.5833Z" fill="#BB2A49"/>
</svg>
