<svg width="40" height="40" viewBox="0 0 40 40" fill="none" xmlns="http://www.w3.org/2000/svg">
<path d="M15.434 2.95942C16.2147 1.21522 17.9654 0 20 0C22.0346 0 23.7853 1.21522 24.566 2.95942C26.1142 1.83925 28.238 1.66221 30 2.6795C31.762 3.69679 32.6706 5.62457 32.4746 7.52543C34.3755 7.32936 36.3033 8.23794 37.3207 9.99999C38.338 11.762 38.1609 13.8858 37.0407 15.434C38.7848 16.2147 40 17.9655 40 20C40 22.0346 38.7848 23.7853 37.0406 24.566C38.1609 26.1142 38.338 28.2381 37.3207 30.0001C36.3033 31.7622 34.3755 32.6708 32.4746 32.4747C32.6705 34.3755 31.762 36.3032 30 37.3205C28.238 38.3378 26.1142 38.1608 24.566 37.0406C23.7853 38.7848 22.0346 40 20 40C17.9654 40 16.2147 38.7848 15.434 37.0406C13.8858 38.1608 11.762 38.3378 9.99999 37.3205C8.23798 36.3032 7.3294 34.3754 7.52542 32.4745C5.62451 32.6706 3.69666 31.762 2.67934 30C1.66205 28.238 1.8391 26.1142 2.95931 24.566C1.21516 23.7852 0 22.0345 0 20C0 17.9654 1.21521 16.2147 2.9594 15.434C1.83911 13.8858 1.66202 11.7619 2.67935 9.99983C3.69666 8.23779 5.62451 7.32921 7.52543 7.52528C7.32948 5.62446 8.23807 3.69676 10 2.6795C11.762 1.66221 13.8858 1.83924 15.434 2.95942ZM20 2.5C18.6193 2.5 17.5 3.61924 17.5 4.99995C17.5 4.99995 17.5007 5.02731 17.505 5.07674C17.5098 5.13224 17.5182 5.20678 17.5317 5.30244C17.5589 5.49555 17.6023 5.742 17.664 6.04299C17.7874 6.64566 17.9697 7.39758 18.1979 8.25936C18.6536 9.98006 19.2669 12.0431 19.8878 14.0449L20 14.4058L20.1122 14.0449C20.7331 12.0431 21.3464 9.98006 21.8021 8.25936C22.0303 7.39758 22.2126 6.64566 22.336 6.04299C22.3977 5.742 22.4411 5.49555 22.4683 5.30244C22.4818 5.20678 22.4902 5.13224 22.495 5.07674C22.4993 5.0272 22.5 5 22.5 5C22.5 3.61929 21.3807 2.5 20 2.5ZM5 22.5C5 22.5 5.02721 22.4993 5.07674 22.495C5.13224 22.4902 5.20678 22.4818 5.30244 22.4683C5.49555 22.4411 5.742 22.3977 6.04299 22.336C6.64566 22.2126 7.39758 22.0303 8.25936 21.8021C9.98006 21.3464 12.0431 20.7331 14.0449 20.1122L14.4058 20L14.0449 19.8878C12.0431 19.2668 9.98006 18.6536 8.25936 18.1979C7.39758 17.9697 6.64566 17.7874 6.04299 17.664C5.742 17.6023 5.49555 17.5589 5.30244 17.5316C5.20678 17.5182 5.13224 17.5098 5.07674 17.505C5.0273 17.5007 4.99958 17.5 4.99958 17.5C3.61887 17.5 2.5 18.6193 2.5 20C2.5 21.3807 3.61929 22.5 5 22.5ZM22.5 35C22.5 35 22.4993 34.9728 22.495 34.9233C22.4902 34.8678 22.4818 34.7932 22.4683 34.6976C22.4411 34.5044 22.3977 34.258 22.336 33.957C22.2126 33.3543 22.0303 32.6024 21.8021 31.7406C21.3464 30.0199 20.7331 27.9569 20.1122 25.9551L20 25.5942L19.8878 25.9551C19.2669 27.9569 18.6536 30.0199 18.1979 31.7406C17.9697 32.6024 17.7874 33.3543 17.664 33.957C17.6023 34.258 17.5589 34.5044 17.5317 34.6976C17.5182 34.7932 17.5098 34.8678 17.505 34.9233C17.5007 34.9727 17.5 35.0004 17.5 35.0004C17.5 36.3811 18.6193 37.5 20 37.5C21.3807 37.5 22.5 36.3807 22.5 35ZM8.25947 29.6651C8.25947 29.6651 8.28274 29.6509 8.32345 29.6224C8.36911 29.5905 8.42947 29.5459 8.50557 29.4864C8.65919 29.3663 8.85091 29.2055 9.08074 29.0016C9.54093 28.5933 10.101 28.0595 10.7332 27.4309C11.9955 26.176 13.4756 24.6133 14.8987 23.0747L15.1551 22.7971L14.7865 22.8804C12.7424 23.3435 10.6491 23.844 8.93113 24.3097C8.0707 24.5429 7.32837 24.761 6.74471 24.9554C6.45321 25.0525 6.21808 25.1381 6.03722 25.2111C5.94762 25.2473 5.87889 25.2773 5.82841 25.3009C5.78379 25.3217 5.75911 25.3351 5.75911 25.3351C4.56337 26.0255 4.15405 27.5543 4.84441 28.75C5.53476 29.9457 7.06374 30.3554 8.25947 29.6651ZM11.25 35.1554C12.4457 35.8458 13.9747 35.4361 14.6651 34.2404C14.6651 34.2404 14.6782 34.2162 14.6991 34.1714C14.7227 34.121 14.7527 34.0522 14.7889 33.9626C14.8618 33.7818 14.9475 33.5466 15.0445 33.2551C15.2389 32.6715 15.457 31.9291 15.6903 31.0687C16.156 29.3507 16.6565 27.2574 17.1196 25.2134L17.2029 24.8447L16.9252 25.1012C15.3866 26.5243 13.824 28.0043 12.569 29.2667C11.9405 29.8989 11.4067 30.4589 10.9984 30.9191C10.7945 31.1489 10.6337 31.3407 10.5136 31.4943C10.454 31.5704 10.4095 31.6307 10.3776 31.6764C10.3469 31.7202 10.3347 31.7407 10.3347 31.7407C9.64436 32.9365 10.0543 34.4651 11.25 35.1554ZM34.2405 14.6651C35.4363 13.9747 35.8459 12.4457 35.1556 11.25C34.4652 10.0543 32.9366 9.64436 31.7409 10.3347C31.7409 10.3347 31.7172 10.3491 31.6766 10.3776C31.6309 10.4095 31.5705 10.454 31.4944 10.5136C31.3408 10.6337 31.1491 10.7945 30.9193 10.9984C30.4591 11.4067 29.899 11.9405 29.2668 12.569C28.0045 13.824 26.5244 15.3866 25.1013 16.9252L24.8449 17.2029L25.2135 17.1196C27.2576 16.6565 29.3509 16.156 31.0689 15.6903C31.9293 15.457 32.6716 15.2389 33.2553 15.0445C33.5468 14.9475 33.7819 14.8618 33.9628 14.7889C34.0524 14.7527 34.1211 14.7227 34.1716 14.6991C34.2164 14.6782 34.2405 14.6651 34.2405 14.6651ZM28.75 4.84456C27.5543 4.15421 26.0255 4.56353 25.3351 5.75926C25.3351 5.75926 25.3235 5.78011 25.3009 5.82856C25.2773 5.87904 25.2473 5.94778 25.2111 6.03737C25.1381 6.21823 25.0525 6.45336 24.9554 6.74486C24.761 7.32853 24.5429 8.07086 24.3097 8.93129C23.844 10.6493 23.3435 12.7426 22.8804 14.7866L22.7971 15.1553L23.0747 14.8988C24.6133 13.4757 26.176 11.9957 27.4309 10.7333C28.0595 10.1011 28.5933 9.54108 29.0016 9.0809C29.2055 8.85107 29.3663 8.65934 29.4864 8.50572C29.5459 8.42962 29.5905 8.36926 29.6224 8.3236C29.653 8.27978 29.6651 8.25963 29.6651 8.25963C30.3554 7.06389 29.9457 5.53492 28.75 4.84456ZM35 22.5C36.3807 22.5 37.5 21.3807 37.5 20C37.5 18.6193 36.3811 17.5 35.0004 17.5C35.0004 17.5 34.9765 17.5003 34.9233 17.505C34.8678 17.5098 34.7932 17.5182 34.6976 17.5317C34.5044 17.5589 34.258 17.6023 33.957 17.664C33.3543 17.7874 32.6024 17.9697 31.7406 18.1979C30.0199 18.6536 27.9569 19.2669 25.9551 19.8878L25.5942 20L25.9551 20.1122C27.9569 20.7331 30.0199 21.3464 31.7406 21.8021C32.6024 22.0303 33.3543 22.2126 33.957 22.336C34.258 22.3977 34.5044 22.4411 34.6976 22.4684C34.7932 22.4818 34.8678 22.4902 34.9233 22.495C34.9728 22.4993 35 22.5 35 22.5ZM4.84441 11.2498C4.15405 12.4456 4.56374 13.9745 5.75947 14.6649C5.75947 14.6649 5.78349 14.678 5.82841 14.699C5.87889 14.7225 5.94762 14.7526 6.03722 14.7887C6.21808 14.8617 6.45321 14.9473 6.74471 15.0444C7.32837 15.2388 8.0707 15.4569 8.93113 15.6901C10.6491 16.1559 12.7424 16.6563 14.7865 17.1195L15.1551 17.2027L14.8987 16.9251C13.4756 15.3865 11.9955 13.8239 10.7332 12.5689C10.101 11.9404 9.54093 11.4065 9.08074 10.9983C8.85091 10.7944 8.65919 10.6335 8.50557 10.5134C8.42947 10.4539 8.36911 10.4094 8.32345 10.3774C8.28281 10.349 8.25943 10.3348 8.25943 10.3348C7.0637 9.6444 5.53477 10.0541 4.84441 11.2498ZM10.3349 8.25962C10.3349 8.25962 10.3492 8.28297 10.3776 8.3236C10.4095 8.36926 10.4541 8.42962 10.5136 8.50572C10.6337 8.65934 10.7945 8.85107 10.9984 9.08089C11.4067 9.54108 11.9405 10.1011 12.5691 10.7333C13.824 11.9957 15.3867 13.4757 16.9253 14.8988L17.2029 15.1553L17.1196 14.7866C16.6565 12.7426 16.156 10.6493 15.6903 8.93129C15.4571 8.07086 15.239 7.32853 15.0446 6.74486C14.9475 6.45336 14.8619 6.21823 14.7889 6.03737C14.7527 5.94778 14.7227 5.87904 14.6992 5.82856C14.6782 5.7837 14.6649 5.75926 14.6649 5.75926C13.9745 4.56353 12.4457 4.1542 11.25 4.84456C10.0543 5.53492 9.64459 7.06389 10.3349 8.25962ZM35.1556 28.7501C35.8459 27.5544 35.4363 26.0255 34.2405 25.3351C34.2405 25.3351 34.2164 25.3219 34.1716 25.301C34.1211 25.2774 34.0524 25.2474 33.9628 25.2113C33.7819 25.1383 33.5468 25.0527 33.2553 24.9556C32.6716 24.7612 31.9293 24.5431 31.0689 24.3098C29.3509 23.8441 27.2576 23.3436 25.2135 22.8805L24.8449 22.7972L25.1013 23.0749C26.5244 24.6135 28.0045 26.1761 29.2668 27.4311C29.899 28.0596 30.4591 28.5934 30.9193 29.0017C31.1491 29.2056 31.3408 29.3664 31.4944 29.4866C31.5705 29.5461 31.6309 29.5906 31.6766 29.6225C31.717 29.6508 31.7405 29.6652 31.7405 29.6652C32.9363 30.3556 34.4652 29.9459 35.1556 28.7501ZM25.3349 34.2404C26.0253 35.4361 27.5543 35.8458 28.75 35.1554C29.9457 34.4651 30.3556 32.9365 29.6653 31.7407C29.6653 31.7407 29.6509 31.7171 29.6224 31.6764C29.5905 31.6307 29.546 31.5704 29.4864 31.4943C29.3663 31.3407 29.2055 31.1489 29.0016 30.9191C28.5933 30.4589 28.0595 29.8989 27.431 29.2667C26.176 28.0043 24.6134 26.5243 23.0748 25.1012L22.7971 24.8447L22.8804 25.2134C23.3435 27.2574 23.844 29.3507 24.3097 31.0687C24.543 31.9291 24.7611 32.6715 24.9555 33.2551C25.0525 33.5466 25.1382 33.7818 25.2111 33.9626C25.2473 34.0522 25.2773 34.121 25.3009 34.1714C25.3219 34.2165 25.3349 34.2404 25.3349 34.2404ZM20 23.75C22.0711 23.75 23.75 22.0711 23.75 20C23.75 17.9289 22.0711 16.25 20 16.25C17.9289 16.25 16.25 17.9289 16.25 20C16.25 22.0711 17.9289 23.75 20 23.75Z" fill="#BB2A49"/>
</svg>
