<svg width="37" height="37" viewBox="0 0 37 37" fill="none" xmlns="http://www.w3.org/2000/svg">
<path fill-rule="evenodd" clip-rule="evenodd" d="M34.6875 30.0625H2.3125V34.6875H34.6875V30.0625ZM2.3125 27.75C1.03534 27.75 0 28.7853 0 30.0625V34.6875C0 35.9647 1.03534 37 2.3125 37H34.6875C35.9647 37 37 35.9647 37 34.6875V30.0625C37 28.7853 35.9647 27.75 34.6875 27.75H2.3125Z" fill="#BB2A49"/>
<path fill-rule="evenodd" clip-rule="evenodd" d="M34.6875 16.1875H2.3125V20.8125H34.6875V16.1875ZM2.3125 13.875C1.03534 13.875 0 14.9103 0 16.1875V20.8125C0 22.0897 1.03534 23.125 2.3125 23.125H34.6875C35.9647 23.125 37 22.0897 37 20.8125V16.1875C37 14.9103 35.9647 13.875 34.6875 13.875H2.3125Z" fill="#BB2A49"/>
<path fill-rule="evenodd" clip-rule="evenodd" d="M30.0625 23.125H6.9375L6.9375 27.75H30.0625V23.125ZM6.9375 20.8125C5.66034 20.8125 4.625 21.8478 4.625 23.125V27.75C4.625 29.0272 5.66034 30.0625 6.9375 30.0625H30.0625C31.3397 30.0625 32.375 29.0272 32.375 27.75V23.125C32.375 21.8478 31.3397 20.8125 30.0625 20.8125H6.9375Z" fill="#BB2A49"/>
<path fill-rule="evenodd" clip-rule="evenodd" d="M30.0625 9.25H6.9375L6.9375 13.875H30.0625V9.25ZM6.9375 6.9375C5.66034 6.9375 4.625 7.97284 4.625 9.25V13.875C4.625 15.1522 5.66034 16.1875 6.9375 16.1875H30.0625C31.3397 16.1875 32.375 15.1522 32.375 13.875V9.25C32.375 7.97284 31.3397 6.9375 30.0625 6.9375H6.9375Z" fill="#BB2A49"/>
<path fill-rule="evenodd" clip-rule="evenodd" d="M34.6875 2.3125H2.3125V6.9375H34.6875V2.3125ZM2.3125 0C1.03534 0 0 1.03534 0 2.3125V6.9375C0 8.21466 1.03534 9.25 2.3125 9.25H34.6875C35.9647 9.25 37 8.21466 37 6.9375V2.3125C37 1.03534 35.9647 0 34.6875 0H2.3125Z" fill="#BB2A49"/>
<path fill-rule="evenodd" clip-rule="evenodd" d="M12.7188 2.3125V6.9375H10.4062V2.3125H12.7188ZM26.5938 2.3125V6.9375H24.2812V2.3125H26.5938ZM17.3438 13.875V9.25H19.6562V13.875H17.3438ZM12.7188 16.1875V20.8125H10.4062V16.1875H12.7188ZM26.5938 16.1875V20.8125H24.2812V16.1875H26.5938ZM17.3438 27.75V23.125H19.6562V27.75H17.3438ZM10.4062 34.6875V30.0625H12.7188V34.6875H10.4062ZM24.2812 34.6875V30.0625H26.5938V34.6875H24.2812Z" fill="#BB2A49"/>
<path d="M0 1.15625C0 0.517671 0.517671 0 1.15625 0H35.8438C36.4823 0 37 0.517671 37 1.15625V8.09375C37 8.73233 36.4823 9.25 35.8438 9.25H32.375V13.875H35.8438C36.4823 13.875 37 14.3927 37 15.0312V21.9688C37 22.6073 36.4823 23.125 35.8438 23.125H32.375V27.75H35.8438C36.4823 27.75 37 28.2677 37 28.9062V35.8438C37 36.4823 36.4823 37 35.8438 37H1.15625C0.517671 37 0 36.4823 0 35.8438V28.9062C0 28.2677 0.517671 27.75 1.15625 27.75H4.625V23.125H1.15625C0.517671 23.125 0 22.6073 0 21.9688V15.0312C0 14.3927 0.517671 13.875 1.15625 13.875H4.625V9.25H1.15625C0.517671 9.25 0 8.73233 0 8.09375V1.15625ZM6.9375 9.25L6.9375 13.875H17.3438V9.25H6.9375ZM19.6562 9.25V13.875H30.0625V9.25H19.6562ZM6.9375 23.125L6.9375 27.75H17.3438V23.125H6.9375ZM19.6562 23.125V27.75H30.0625V23.125H19.6562ZM2.3125 2.3125V6.9375H10.4062V2.3125H2.3125ZM12.7188 2.3125V6.9375H24.2812V2.3125H12.7188ZM26.5938 2.3125V6.9375H34.6875V2.3125H26.5938ZM2.3125 16.1875V20.8125H10.4062V16.1875H2.3125ZM12.7188 16.1875V20.8125H24.2812V16.1875H12.7188ZM26.5938 16.1875V20.8125H34.6875V16.1875H26.5938ZM2.3125 30.0625V34.6875H10.4062V30.0625H2.3125ZM12.7188 30.0625V34.6875H24.2812V30.0625H12.7188ZM26.5938 30.0625V34.6875H34.6875V30.0625H26.5938Z" fill="#BB2A49"/>
</svg>
