<svg width="200" height="200" viewBox="0 0 200 200" fill="none" xmlns="http://www.w3.org/2000/svg">
<path fill-rule="evenodd" clip-rule="evenodd" d="M135.669 76.8306C138.11 79.2714 138.11 83.2286 135.669 85.6694L98.1694 123.169C96.9973 124.342 95.4076 125 93.75 125C92.0924 125 90.5027 124.342 89.3306 123.169L70.5806 104.419C68.1398 101.979 68.1398 98.0214 70.5806 95.5806C73.0214 93.1398 76.9786 93.1398 79.4194 95.5806L93.75 109.911L126.831 76.8306C129.271 74.3898 133.229 74.3898 135.669 76.8306Z" fill="#F7BACF"/>
<path d="M37.5 0H162.5C176.307 0 187.5 11.1929 187.5 25V175C187.5 188.807 176.307 200 162.5 200H37.5C23.6929 200 12.5 188.807 12.5 175V162.5H25V175C25 181.904 30.5964 187.5 37.5 187.5H162.5C169.404 187.5 175 181.904 175 175V25C175 18.0964 169.404 12.5 162.5 12.5H37.5C30.5964 12.5 25 18.0964 25 25V37.5H12.5V25C12.5 11.1929 23.6929 0 37.5 0Z" fill="#F8D7E5"/>
<path d="M12.5 62.5V56.25C12.5 52.7982 15.2982 50 18.75 50C22.2018 50 25 52.7982 25 56.25V62.5H31.25C34.7018 62.5 37.5 65.2982 37.5 68.75C37.5 72.2018 34.7018 75 31.25 75H6.25C2.79822 75 0 72.2018 0 68.75C0 65.2982 2.79822 62.5 6.25 62.5H12.5Z" fill="#F8D7E5"/>
<path d="M12.5 100V93.75C12.5 90.2982 15.2982 87.5 18.75 87.5C22.2018 87.5 25 90.2982 25 93.75V100H31.25C34.7018 100 37.5 102.798 37.5 106.25C37.5 109.702 34.7018 112.5 31.25 112.5H6.25C2.79822 112.5 0 109.702 0 106.25C0 102.798 2.79822 100 6.25 100H12.5Z" fill="#F8D7E5"/>
<path d="M12.5 137.5V131.25C12.5 127.798 15.2982 125 18.75 125C22.2018 125 25 127.798 25 131.25V137.5H31.25C34.7018 137.5 37.5 140.298 37.5 143.75C37.5 147.202 34.7018 150 31.25 150H6.25C2.79822 150 0 147.202 0 143.75C0 140.298 2.79822 137.5 6.25 137.5H12.5Z" fill="#F8D7E5"/>
</svg>
