<svg width="200" height="200" viewBox="0 0 200 200" fill="none" xmlns="http://www.w3.org/2000/svg">
<path d="M162.5 109.375V90.625H200V109.375H162.5ZM175 200L144.75 171.875L153.75 156.875L184 185L175 200ZM154.5 42.8125L145.5 27.8125L175 0L184 15L154.5 42.8125ZM32.5 187.5V137.5H15C10.875 137.5 7.34375 135.664 4.40625 131.992C1.46875 128.32 0 123.906 0 118.75V81.25C0 76.0938 1.46875 71.6797 4.40625 68.0078C7.34375 64.3359 10.875 62.5 15 62.5H60L110 25V175L60 137.5H47.5V187.5H32.5ZM120 141.875V58.125C124.5 63.125 128.125 69.2188 130.875 76.4062C133.625 83.5938 135 91.4583 135 100C135 108.542 133.625 116.406 130.875 123.594C128.125 130.781 124.5 136.875 120 141.875ZM15 81.25V118.75H64L95 141.875V58.125L64 81.25H15Z" fill="#F8D7E5"/>
</svg>
